<svg xmlns="http://www.w3.org/2000/svg" viewBox="0 0 512 512" role="img" aria-label="what100">
  <defs>
    <linearGradient id="g" x1="80" y1="40" x2="440" y2="480" gradientUnits="userSpaceOnUse">
      <stop stop-color="#1a322c"/>
      <stop offset="1" stop-color="#0f1f1c"/>
    </linearGradient>
  </defs>
  <rect width="512" height="512" rx="112" fill="url(#g)"/>
  <rect x="96" y="118" width="320" height="276" rx="36" fill="#122821" stroke="#3f9a78" stroke-width="10"/>
  <g fill="#d6f26a">
    <rect x="132" y="168" width="42" height="42" rx="10"/>
    <rect x="190" y="168" width="42" height="42" rx="10"/>
    <rect x="248" y="168" width="42" height="42" rx="10"/>
    <rect x="306" y="168" width="42" height="42" rx="10" fill="#2f6b57"/>
    <rect x="132" y="226" width="42" height="42" rx="10"/>
    <rect x="190" y="226" width="42" height="42" rx="10" fill="#2f6b57"/>
    <rect x="248" y="226" width="42" height="42" rx="10"/>
    <rect x="306" y="226" width="42" height="42" rx="10"/>
    <rect x="132" y="284" width="42" height="42" rx="10" fill="#2f6b57"/>
    <rect x="190" y="284" width="42" height="42" rx="10"/>
    <rect x="248" y="284" width="42" height="42" rx="10"/>
    <rect x="306" y="284" width="42" height="42" rx="10" fill="#2f6b57"/>
  </g>
</svg>
